<svg width="400" height="600" viewBox="0 0 400 600" fill="none" xmlns="http://www.w3.org/2000/svg">
<rect width="400" height="600" rx="24" fill="#fffdfa"/>
<g opacity="0.12">
  <rect x="32" y="0" width="2" height="600" fill="#6C63FF"/>
  <rect x="60" y="0" width="2" height="600" fill="#6C63FF"/>
  <rect x="88" y="0" width="2" height="600" fill="#6C63FF"/>
  <rect x="116" y="0" width="2" height="600" fill="#6C63FF"/>
  <rect x="144" y="0" width="2" height="600" fill="#6C63FF"/>
  <rect x="172" y="0" width="2" height="600" fill="#6C63FF"/>
  <rect x="200" y="0" width="2" height="600" fill="#6C63FF"/>
  <rect x="228" y="0" width="2" height="600" fill="#6C63FF"/>
  <rect x="256" y="0" width="2" height="600" fill="#6C63FF"/>
  <rect x="284" y="0" width="2" height="600" fill="#6C63FF"/>
  <rect x="312" y="0" width="2" height="600" fill="#6C63FF"/>
  <rect x="340" y="0" width="2" height="600" fill="#6C63FF"/>
</g>
<g opacity="0.08">
  <rect x="0" y="40" width="400" height="2" fill="#6C63FF"/>
  <rect x="0" y="80" width="400" height="2" fill="#6C63FF"/>
  <rect x="0" y="120" width="400" height="2" fill="#6C63FF"/>
  <rect x="0" y="160" width="400" height="2" fill="#6C63FF"/>
  <rect x="0" y="200" width="400" height="2" fill="#6C63FF"/>
  <rect x="0" y="240" width="400" height="2" fill="#6C63FF"/>
  <rect x="0" y="280" width="400" height="2" fill="#6C63FF"/>
  <rect x="0" y="320" width="400" height="2" fill="#6C63FF"/>
  <rect x="0" y="360" width="400" height="2" fill="#6C63FF"/>
  <rect x="0" y="400" width="400" height="2" fill="#6C63FF"/>
  <rect x="0" y="440" width="400" height="2" fill="#6C63FF"/>
  <rect x="0" y="480" width="400" height="2" fill="#6C63FF"/>
  <rect x="0" y="520" width="400" height="2" fill="#6C63FF"/>
  <rect x="0" y="560" width="400" height="2" fill="#6C63FF"/>
</g>
</svg>
